<?xml version="1.0" standalone="no"?>
<!DOCTYPE svg PUBLIC "-//W3C//DTD SVG 20010904//EN"
 "http://www.w3.org/TR/2001/REC-SVG-20010904/DTD/svg10.dtd">
<svg version="1.0" xmlns="http://www.w3.org/2000/svg"
 width="225.000000pt" height="225.000000pt" viewBox="0 0 225.000000 225.000000"
 preserveAspectRatio="xMidYMid meet">

<g transform="translate(0.000000,225.000000) scale(0.100000,-0.100000)"
fill="#000000" stroke="none">
<path d="M1079 2086 c-20 -7 -114 -58 -210 -113 -96 -55 -255 -146 -354 -203
-99 -57 -190 -112 -202 -123 -52 -47 -54 -67 -51 -537 3 -391 5 -438 20 -467
19 -33 40 -47 373 -238 454 -261 445 -257 510 -238 18 6 129 66 247 134 117
67 274 157 348 200 170 97 204 126 219 184 15 58 15 835 0 887 -15 57 -43 82
-169 154 -486 278 -639 363 -665 368 -16 3 -46 0 -66 -8z m241 -405 c55 -20
110 -50 155 -84 73 -55 164 -163 149 -177 -5 -4 -62 -38 -127 -75 l-118 -67
-42 46 c-115 123 -318 123 -427 -1 -99 -113 -92 -292 16 -397 53 -51 99 -70
185 -74 97 -5 159 20 225 90 44 48 47 49 70 34 13 -9 67 -41 121 -72 54 -31
100 -58 102 -60 8 -7 -73 -106 -122 -149 -98 -87 -253 -144 -388 -145 -74 0
-196 32 -272 72 -87 45 -205 166 -245 250 -113 236 -70 493 113 675 165 162
389 212 605 134z m340 -416 c0 -22 4 -25 40 -25 36 0 40 3 40 25 0 21 5 25 30
25 25 0 30 -4 30 -24 0 -19 6 -25 28 -28 23 -3 27 -8 27 -33 0 -25 -4 -30 -28
-33 -26 -3 -28 -6 -25 -40 3 -32 6 -37 28 -37 21 0 25 -5 25 -30 0 -25 -4 -30
-27 -33 -22 -3 -28 -9 -28 -28 0 -20 -5 -24 -30 -24 -25 0 -30 4 -30 25 0 23
-4 25 -40 25 -36 0 -40 -2 -40 -25 0 -21 -5 -25 -30 -25 -25 0 -30 4 -30 24 0
19 -6 25 -27 28 -24 3 -28 8 -28 33 0 25 4 30 25 30 22 0 25 5 28 37 3 34 1
37 -25 40 -24 3 -28 8 -28 33 0 25 4 30 28 33 21 3 27 9 27 28 0 20 5 24 30
24 25 0 30 -4 30 -25z"/>
<path d="M1660 1137 c0 -42 2 -44 45 -39 32 4 35 7 35 38 0 33 -1 34 -40 34
-39 0 -40 -1 -40 -33z"/>
</g>
</svg>
